<svg xmlns="http://www.w3.org/2000/svg" width="25" height="25.239" viewBox="0 0 25 25.239"><g transform="translate(-533.76 66.376)"><path d="M582.671-49.512c0,1.537.016,2.969-.015,4.4a2.284,2.284,0,0,1-.321.755,2.355,2.355,0,0,1-.688-.36c-1.256-1.364-2.506-2.735-3.717-4.139a1.726,1.726,0,0,0-1.478-.672c-2.747.041-5.495.019-8.242.017-1.5,0-2.124-.622-2.124-2.1q0-6.345,0-12.69c0-1.438.634-2.067,2.084-2.068q8.243,0,16.485,0c1.454,0,2.07.619,2.071,2.07q0,6.38,0,12.76c0,1.4-.636,2.026-2.043,2.033C584.036-49.51,583.389-49.512,582.671-49.512Zm-8.49-8.439c0-.3.01-.6,0-.9a1.237,1.237,0,0,0-1.361-1.321,1.29,1.29,0,0,0-1.451,1.32c-.024.554-.017,1.109,0,1.663a1.326,1.326,0,0,0,1.454,1.408,1.285,1.285,0,0,0,1.362-1.407C574.188-57.443,574.182-57.7,574.181-57.951Zm7.246.008h0c0-.323.012-.647,0-.97a1.223,1.223,0,0,0-1.346-1.26,1.27,1.27,0,0,0-1.442,1.246c-.028.576-.016,1.155-.005,1.732a1.306,1.306,0,0,0,1.434,1.414,1.27,1.27,0,0,0,1.363-1.4C581.431-57.435,581.427-57.689,581.427-57.943Z" transform="translate(-27.967)" fill="#2b2b2b"/><path d="M538.277,8.068c-.939,0-1.818.005-2.7,0a1.665,1.665,0,0,1-1.816-1.822c-.007-2.981,0-5.961,0-8.942,0-1.582.553-2.124,2.149-2.115h.513v.692c0,2.166,0,4.331,0,6.5a2.835,2.835,0,0,0,3.005,3.028c2.888.012,5.775,0,8.663,0h.744c.387,1.5-.319,2.8-2.039,2.676-1.2-.088-2.421,0-3.631-.027a1.223,1.223,0,0,0-1.072.47c-.9,1.064-1.838,2.1-2.792,3.122a2.206,2.206,0,0,1-.746.335,2.451,2.451,0,0,1-.267-.726C538.26,10.22,538.277,9.177,538.277,8.068Z" transform="translate(0 -53.123)" fill="#2b2b2b"/></g></svg>