<svg xmlns="http://www.w3.org/2000/svg" width="28" height="28" viewBox="0 0 28 28"><defs><style>.a,.b,.c{fill:none;}.a,.b{stroke:#222;stroke-miterlimit:10;stroke-width:2px;}.b{stroke-linecap:round;}</style></defs><g transform="translate(-1809 -47)"><g transform="translate(2024.264 45.387)"><g transform="translate(-211.264 9.833)"><path class="a" d="M-201.571,57.154h-8.283a1.382,1.382,0,0,1-1.41-1.353l1.355-15.025a1.382,1.382,0,0,1,1.41-1.353h6.929" transform="translate(211.264 -39.423)"/><path class="a" d="M-155.523,57.154h8.283a1.382,1.382,0,0,0,1.41-1.353l-1.354-15.025a1.382,1.382,0,0,0-1.41-1.353h-6.929" transform="translate(165.204 -39.423)"/></g><g transform="translate(-205.488 3.613)"><path class="b" d="M-174.093,3.613A3.917,3.917,0,0,0-178.01,7.53v2.3" transform="translate(178.01 -3.613)"/><path class="b" d="M-155.52,3.613A3.917,3.917,0,0,1-151.6,7.53v2.3" transform="translate(159.426 -3.613)"/></g></g><rect class="c" width="28" height="28" transform="translate(1809 47)"/></g></svg>